# xmcd CD database file
#
# Track frame offsets:
#	150
#	11792
#	24922
#	36352
#	49955
#	60412
#	71145
#	84150
#	100510
#	119595
#
# Disc length: 1861 seconds
#
# Revision: 1
# Processed by: cddbd v1.5.2PL0 Copyright (c) Steve Scherf et al.
# Submitted via: CDex 1.51
#
DISCID=7c07430a
DTITLE=Jimmy Reed - Just Jimmy Reed
DYEAR=2000
DGENRE=Blues
TTITLE0=I'll Change My Style
TTITLE1=Let's Get Together
TTITLE2=Good Lover
TTITLE3=Take It Slow
TTITLE4=Too Much
TTITLE5=In The Morning
TTITLE6=Oh John
TTITLE7=Back Home At Noon
TTITLE8=Kansas City Baby
TTITLE9=You Can't Hide
EXTD=YEAR: 2000
EXTT0=
EXTT1=
EXTT2=
EXTT3=
EXTT4=
EXTT5=
EXTT6=
EXTT7=
EXTT8=
EXTT9=
PLAYORDER=
